<?xml version="1.0" standalone="no"?>
<!DOCTYPE svg PUBLIC "-//W3C//DTD SVG 20010904//EN"
 "http://www.w3.org/TR/2001/REC-SVG-20010904/DTD/svg10.dtd">
<svg version="1.0" xmlns="http://www.w3.org/2000/svg"
 width="1152.000000pt" height="387.000000pt" viewBox="0 0 1152.000000 387.000000"
 preserveAspectRatio="xMidYMid meet">

<g transform="translate(0.000000,387.000000) scale(0.100000,-0.100000)"
fill="#000000" stroke="none">
<path d="M5700 3530 c0 -6 -103 -10 -290 -10 -187 0 -290 -4 -290 -10 0 -5
-18 -10 -40 -10 -29 0 -40 -4 -40 -15 0 -11 -13 -15 -52 -15 -29 0 -71 -5 -93
-11 -22 -5 -123 -16 -225 -24 l-184 -15 -46 -44 c-37 -36 -54 -45 -91 -48 -29
-3 -52 0 -64 8 -10 8 -22 14 -26 14 -13 0 -139 -110 -139 -121 0 -6 -7 -17
-15 -25 -17 -17 -19 -66 -8 -241 l6 -113 54 0 53 0 0 -60 0 -60 30 0 c27 0 30
-3 30 -30 0 -25 4 -30 25 -30 14 0 25 -4 25 -9 0 -6 17 -11 38 -13 32 -3 37
-7 40 -30 3 -27 1 -28 -37 -28 -23 0 -41 -4 -41 -10 0 -5 18 -10 40 -10 35 0
40 -3 40 -22 0 -30 57 -128 73 -128 16 0 87 -72 87 -88 0 -7 13 -12 30 -12 28
0 30 -3 30 -36 0 -20 4 -33 10 -29 14 9 60 -6 60 -20 0 -7 13 -15 29 -18 18
-4 32 -14 36 -27 4 -13 15 -20 30 -20 28 0 75 -20 75 -32 0 -4 14 -8 30 -8 23
0 30 -4 30 -20 0 -16 7 -20 30 -20 17 0 30 -4 30 -10 0 -5 14 -10 30 -10 17 0
30 -4 30 -10 0 -5 18 -10 40 -10 33 0 40 -3 40 -20 0 -16 7 -20 35 -20 24 0
35 -5 35 -15 0 -11 12 -15 45 -15 l45 0 0 -45 0 -45 -45 0 c-38 0 -45 3 -45
20 0 16 -7 20 -35 20 -40 0 -44 -11 -15 -40 11 -11 20 -31 20 -45 0 -14 5 -25
12 -25 17 0 98 -40 98 -49 0 -3 -15 -14 -32 -24 -32 -17 -33 -20 -30 -70 2
-28 8 -62 14 -75 11 -20 13 -21 34 -7 32 21 54 19 54 -4 0 -15 5 -18 21 -14
20 6 21 3 17 -37 -3 -34 1 -48 18 -67 l21 -23 13 43 c19 60 37 87 55 81 8 -4
15 -15 15 -27 0 -24 -38 -138 -51 -151 -5 -6 -9 -18 -9 -28 0 -14 8 -18 35
-18 19 0 38 0 43 0 4 0 11 12 15 28 5 15 12 36 17 47 5 11 11 36 12 55 2 28 8
36 26 38 21 3 22 1 22 -80 1 -80 1 -82 16 -55 9 17 22 27 32 25 15 -3 17 -20
20 -116 2 -69 6 -110 12 -107 6 3 10 34 11 68 0 92 11 141 32 145 10 2 17 -3
17 -11 0 -8 6 -17 14 -20 8 -3 18 -21 22 -39 l8 -33 11 50 c11 49 38 73 48 43
2 -7 2 -2 0 12 -7 40 -52 131 -85 173 -29 36 -30 40 -14 55 16 16 22 11 100
-71 45 -48 85 -85 88 -82 3 3 2 23 -3 43 -13 55 -11 108 4 121 8 6 17 7 21 3
13 -13 36 -74 36 -96 0 -12 6 -30 13 -41 13 -17 15 -17 30 6 10 13 17 19 18
14 0 -6 5 1 10 14 6 16 6 28 -1 35 -20 20 -10 28 15 12 24 -16 25 -16 25 8 0
19 -11 31 -50 53 -54 30 -61 39 -31 39 11 0 19 -5 18 -10 -3 -18 36 -19 45 -1
7 12 17 15 38 10 19 -4 31 -2 37 8 4 7 35 29 68 48 40 24 61 42 63 57 2 16 -2
22 -15 23 -15 0 -14 2 5 9 16 7 22 18 22 41 0 18 7 41 17 51 15 17 14 18 -30
18 -40 0 -47 3 -47 19 0 15 -8 21 -32 24 l-33 4 33 1 c17 1 32 7 32 12 0 6 11
10 25 10 21 0 25 5 25 30 0 29 2 30 45 30 25 0 45 5 45 10 0 6 16 10 35 10 19
0 35 5 35 10 0 6 18 10 40 10 22 0 40 5 40 10 0 6 14 10 30 10 27 0 30 3 30
31 l0 32 -46 -7 c-26 -3 -57 -6 -70 -6 -19 0 -24 -5 -24 -25 0 -22 -4 -25 -35
-25 -24 0 -35 5 -35 15 0 13 -23 15 -150 15 -127 0 -150 -2 -150 -15 0 -9 -9
-15 -25 -15 -16 0 -25 6 -25 15 0 13 -36 15 -260 15 -224 0 -260 -2 -260 -15
0 -12 -16 -15 -80 -15 -64 0 -80 3 -80 15 0 12 -18 15 -105 15 -63 0 -105 4
-105 10 0 6 -18 10 -40 10 -33 0 -40 3 -40 20 0 16 -7 20 -30 20 -20 0 -30 5
-30 15 0 10 10 15 30 15 25 0 30 4 30 25 0 24 2 25 75 25 43 0 75 4 75 10 0 6
30 10 70 10 40 0 70 -4 70 -10 0 -5 14 -10 30 -10 28 0 30 -2 30 -40 l0 -40
50 0 c38 0 50 -4 50 -15 0 -13 27 -15 180 -15 153 0 180 2 180 15 0 12 16 15
80 15 64 0 80 3 80 15 0 9 9 15 25 15 16 0 25 6 25 15 0 9 -9 15 -25 15 -14 0
-25 5 -25 10 0 6 11 10 25 10 14 0 25 5 25 10 0 6 -42 10 -105 10 -63 0 -105
-4 -105 -10 0 -5 -22 -10 -50 -10 -27 0 -50 5 -50 10 0 6 -11 10 -25 10 -14 0
-25 5 -25 10 0 6 58 10 155 10 97 0 155 4 155 10 0 6 11 10 25 10 14 0 25 -4
25 -10 0 -5 23 -10 50 -10 28 0 50 5 50 10 0 6 14 10 30 10 17 0 30 -4 30 -10
0 -6 30 -10 70 -10 40 0 70 -4 70 -10 0 -6 42 -10 105 -10 63 0 105 4 105 10
0 6 -13 10 -30 10 -29 0 -30 2 -30 45 0 62 25 60 84 -7 44 -50 46 -55 42 -102
-3 -30 -12 -56 -25 -70 -22 -23 -19 -36 7 -36 8 0 41 20 74 45 32 24 75 47 94
51 19 3 34 12 34 20 0 8 9 14 19 14 10 0 21 6 24 14 3 7 20 16 39 20 43 9 71
32 93 79 20 43 17 110 -10 212 -18 69 -19 85 -5 85 6 0 10 -20 10 -45 l0 -45
40 0 c29 0 40 4 40 15 0 10 10 15 30 15 20 0 30 5 30 15 0 11 12 15 50 15 l50
0 0 70 c0 64 2 70 21 70 11 0 36 16 55 35 33 35 34 37 34 119 0 47 -4 86 -8
88 -14 6 -52 78 -52 99 0 13 -7 19 -21 19 -12 0 -23 8 -26 20 -3 11 -10 20
-15 20 -5 0 -40 31 -76 69 -53 54 -77 71 -112 80 -25 7 -56 16 -70 21 -14 5
-74 14 -134 20 -60 5 -123 14 -140 20 -234 73 -267 79 -498 87 -98 3 -178 10
-178 15 0 4 -70 8 -155 8 -97 0 -155 -4 -155 -10z m-1092 -147 c-10 -2 -26 -2
-35 0 -10 3 -2 5 17 5 19 0 27 -2 18 -5z m1830 -90 c9 -10 26 -29 37 -42 l20
-24 -22 14 c-13 8 -23 17 -23 21 0 4 -17 16 -37 27 -32 17 -34 20 -15 21 13 0
31 -8 40 -17z m652 -8 c10 -12 10 -15 -4 -15 -9 0 -16 7 -16 15 0 8 2 15 4 15
2 0 9 -7 16 -15z m-1700 -5 c0 -5 -2 -10 -4 -10 -3 0 -8 5 -11 10 -3 6 -1 10
4 10 6 0 11 -4 11 -10z m148 -3 c6 -6 14 -26 18 -42 4 -17 18 -52 31 -79 l25
-49 -32 23 c-18 13 -41 43 -52 66 -10 24 -22 46 -27 48 -5 3 -11 15 -14 26 -4
16 0 20 18 20 12 0 27 -6 33 -13z m157 -9 c33 -26 95 -87 95 -93 0 -3 -21 3
-46 13 -55 22 -114 67 -114 87 0 22 33 18 65 -7z m135 12 c0 -13 -20 -13 -40
0 -12 8 -9 10 13 10 15 0 27 -4 27 -10z m172 -1 c-15 -6 -30 -5 -40 1 -13 7
-8 9 23 9 35 0 37 -1 17 -10z m132 2 c4 -5 -3 -7 -14 -4 -23 6 -26 13 -6 13 8
0 17 -4 20 -9z m-1254 -31 c0 -17 -3 -19 -19 -11 -23 13 -38 -2 -43 -41 -3
-27 -3 -27 -25 12 l-21 40 29 0 c16 0 29 5 29 10 0 6 11 10 25 10 18 0 25 -5
25 -20z m141 -46 c9 -33 22 -71 29 -84 12 -22 11 -22 -10 -7 -22 15 -80 121
-80 145 0 8 9 12 22 10 19 -2 26 -15 39 -64z m213 53 c17 -12 17 -14 2 -20
-31 -12 -18 -52 34 -101 27 -25 45 -46 40 -46 -16 0 -150 145 -150 163 0 21
47 24 74 4z m136 -29 c28 -24 54 -55 59 -71 l10 -28 -26 21 c-58 45 -123 105
-123 112 0 20 35 4 80 -34z m-1160 2 c0 -15 -7 -20 -27 -20 -25 0 -26 0 -8 20
10 11 22 20 27 20 4 0 8 -9 8 -20z m1785 -30 c4 -8 -8 -2 -24 14 -17 17 -31
31 -31 33 0 9 50 -34 55 -47z m1150 30 c3 -5 1 -10 -4 -10 -6 0 -11 5 -11 10
0 6 2 10 4 10 3 0 8 -4 11 -10z m-2047 -67 c6 -24 9 -43 7 -43 -8 0 -33 50
-40 80 -6 31 -5 33 8 20 9 -8 20 -34 25 -57z m1217 15 l30 -30 -36 24 c-76 49
-77 49 -49 42 14 -3 39 -19 55 -36z m-1617 20 c-3 -7 -21 -14 -41 -16 -28 -2
-37 1 -37 12 0 12 11 16 41 16 28 0 39 -4 37 -12z m1327 -70 c21 -13 25 -18
12 -18 -23 0 -74 26 -101 52 -21 20 -21 20 19 1 22 -10 54 -26 70 -35z m695
37 c0 -19 -11 -19 -36 0 -18 14 -18 14 9 15 17 0 27 -5 27 -15z m-151 -29 c10
-12 9 -14 -9 -9 -11 3 -25 14 -31 25 -9 17 -8 18 9 9 10 -5 24 -17 31 -25z
m-1804 -14 c-7 -7 -55 19 -50 28 4 6 15 3 30 -7 13 -10 22 -19 20 -21z m1002
1 c12 -8 24 -20 26 -27 6 -15 -79 29 -89 46 -8 13 33 1 63 -19z m-887 -9 c0
-2 -9 0 -20 6 -11 6 -20 13 -20 16 0 2 9 0 20 -6 11 -6 20 -13 20 -16z m356
-41 c30 -14 57 -29 60 -34 8 -13 -89 34 -119 58 -15 11 -27 27 -27 34 0 7 7 3
16 -9 9 -13 40 -35 70 -49z m-241 9 c3 -8 -8 -4 -25 8 -41 29 -48 43 -11 22
17 -9 33 -23 36 -30z m1300 8 c3 -5 0 -10 -7 -10 -18 0 -58 28 -58 41 0 11 55
-15 65 -31z m-770 0 c23 -26 9 -26 -30 0 -26 17 -27 20 -9 20 11 0 29 -9 39
-20z m370 -1 c5 -5 0 -9 -14 -9 -12 0 -30 8 -39 17 -16 15 -15 16 13 9 17 -4
34 -12 40 -17z m-1290 0 c4 -5 32 -22 63 -37 52 -24 54 -27 30 -30 -33 -4
-128 45 -128 65 0 15 26 18 35 2z m1872 -59 c5 0 28 -9 51 -20 22 -11 47 -20
53 -20 7 0 41 -16 76 -35 46 -25 76 -35 108 -35 24 0 47 -4 50 -10 4 -6 -38
-10 -119 -10 -77 0 -126 4 -126 10 0 6 -136 10 -388 10 -386 0 -388 0 -402 22
-8 12 -23 30 -32 40 -23 23 -23 28 2 28 11 0 20 5 20 10 0 24 151 -9 201 -44
15 -10 44 -16 76 -16 50 0 53 1 53 25 0 30 20 33 65 9 17 -8 51 -18 78 -21 40
-5 47 -3 47 12 0 14 6 16 33 11 17 -3 65 -9 105 -12 60 -6 72 -4 72 9 0 8 -22
24 -54 37 -30 12 -64 33 -77 47 -21 22 -16 21 38 -11 34 -20 65 -36 70 -36z
m-280 34 c-3 -3 -12 -4 -19 -1 -8 3 -5 6 6 6 11 1 17 -2 13 -5z m-1232 -22
c-3 -3 -11 0 -18 7 -9 10 -8 11 6 5 10 -3 15 -9 12 -12z m2335 -70 c0 -31 -5
-64 -10 -72 -7 -10 -10 9 -10 63 0 50 4 76 10 72 6 -3 10 -32 10 -63z m-1653
42 c18 -3 39 -17 49 -31 16 -25 16 -26 -8 -20 -14 4 -54 20 -89 37 -62 29 -63
30 -24 26 22 -3 54 -8 72 -12z m1099 -52 c-3 -3 -22 3 -41 14 l-36 19 22 18
c21 17 22 17 41 -14 10 -17 17 -34 14 -37z m-719 42 c-3 -3 -12 -4 -19 -1 -8
3 -5 6 6 6 11 1 17 -2 13 -5z m-826 -49 c53 -19 69 -19 69 1 0 11 5 14 18 9 9
-4 46 -9 82 -11 171 -11 291 -22 298 -28 8 -8 -549 0 -628 9 -48 6 -58 4 -74
-14 -18 -20 -30 -21 -176 -21 -190 0 -220 5 -220 34 0 20 4 21 127 22 257 1
303 3 303 13 0 14 150 4 201 -14z m-431 -90 c0 -20 -58 -20 -84 0 -18 14 -16
15 32 15 40 0 52 -4 52 -15z m2490 5 c-19 -13 -30 -13 -30 0 0 6 10 10 23 10
18 0 19 -2 7 -10z m-480 -30 c0 -5 -13 -10 -30 -10 -16 0 -30 5 -30 10 0 6 14
10 30 10 17 0 30 -4 30 -10z m290 0 c0 -5 -18 -10 -40 -10 -22 0 -40 5 -40 10
0 6 18 10 40 10 22 0 40 -4 40 -10z m-1320 -50 c0 -5 12 -10 28 -10 43 0 72
-26 72 -65 l0 -34 80 -7 c76 -6 80 -8 80 -30 0 -19 5 -24 25 -24 16 0 25 -6
25 -15 0 -11 12 -15 50 -15 28 0 50 -4 50 -10 0 -5 15 -11 33 -11 25 -1 21 -3
-18 -9 -76 -12 -425 -12 -425 0 0 6 -27 10 -60 10 -33 0 -60 -4 -60 -10 0 -12
-279 -12 -325 0 l-30 8 28 1 c15 0 27 6 27 11 0 6 -30 10 -70 10 -40 0 -70 -4
-70 -10 0 -6 -32 -10 -75 -10 -43 0 -75 -4 -75 -10 0 -6 -27 -10 -60 -10 -33
0 -60 -4 -60 -10 0 -5 -20 -10 -45 -10 -33 0 -45 -4 -45 -15 0 -10 -10 -15
-30 -15 -20 0 -30 -5 -30 -15 0 -10 10 -15 30 -15 24 0 30 -4 30 -21 0 -16 -4
-19 -17 -14 -10 4 -45 13 -78 20 -96 20 -119 34 -190 123 -59 74 -66 88 -70
135 -2 28 -2 44 1 35 7 -24 84 -26 84 -3 0 10 10 15 30 15 20 0 30 -5 30 -15
0 -10 11 -15 35 -15 25 0 35 4 35 15 0 13 9 11 47 -9 26 -14 73 -28 104 -32
35 -4 60 -12 63 -20 4 -11 -13 -14 -87 -14 -142 0 -197 9 -197 31 0 14 -7 19
-30 19 -23 0 -30 -5 -30 -19 0 -16 10 -20 65 -26 36 -4 65 -11 65 -16 0 -5 57
-9 128 -9 96 -1 132 -4 146 -15 29 -22 316 -22 316 0 0 12 13 15 55 15 42 0
55 3 55 15 0 11 12 15 48 15 42 0 51 4 62 25 7 14 19 25 27 25 7 0 13 11 13
25 0 23 4 25 45 25 25 0 45 5 45 10 0 6 27 10 60 10 33 0 60 -4 60 -10z m1137
-16 c-3 -3 -12 -4 -19 -1 -8 3 -5 6 6 6 11 1 17 -2 13 -5z m-125 -24 c-43 -18
-242 -18 -242 0 0 6 50 10 133 9 89 0 125 -3 109 -9z m-679 -52 c8 -28 8 -28
-36 -21 -27 4 -37 11 -37 24 0 30 66 27 73 -3z m137 2 c0 -19 7 -20 105 -20
98 0 105 1 105 20 0 12 7 20 17 20 9 0 13 -3 10 -7 -4 -3 -2 -12 3 -18 17 -20
-66 -45 -160 -50 -47 -2 -73 -1 -57 1 38 7 34 24 -7 24 -25 0 -38 6 -50 25
-16 24 -16 25 9 25 18 0 25 -5 25 -20z m577 -25 c78 0 81 -1 70 -20 -15 -28
-54 -63 -126 -112 -78 -54 -111 -64 -111 -34 0 17 -6 21 -30 21 -23 0 -30 4
-30 20 0 19 -7 20 -105 20 -87 0 -105 3 -105 15 0 10 10 15 29 15 15 0 49 11
75 25 42 22 59 25 152 25 63 0 104 4 104 10 0 6 -40 10 -100 10 -69 0 -100 4
-100 11 0 9 26 10 98 3 53 -4 134 -9 179 -9z m-1764 -2 c-7 -2 -21 -2 -30 0
-10 3 -4 5 12 5 17 0 24 -2 18 -5z m1782 -171 c-3 -4 -10 0 -15 8 -6 9 -5 17
3 22 13 8 24 -19 12 -30z m-56 -26 c-2 -2 -15 -7 -29 -10 l-25 -7 25 21 c15
14 26 18 28 10 2 -6 2 -13 1 -14z m-2265 -2 c9 -24 2 -26 -12 -4 -7 11 -8 20
-3 20 5 0 12 -7 15 -16z m2396 -81 c0 -14 -6 -23 -15 -23 -12 0 -15 12 -14 53
l1 52 13 -30 c8 -16 14 -40 15 -52z m-224 48 c-7 -11 -56 -21 -56 -10 0 6 13
11 53 18 5 0 6 -3 3 -8z m109 -22 c11 -17 -1 -21 -15 -4 -8 9 -8 15 -2 15 6 0
14 -5 17 -11z m-1995 -18 c0 -6 -4 -13 -10 -16 -5 -3 -10 1 -10 9 0 9 5 16 10
16 6 0 10 -4 10 -9z m140 -16 c0 -21 5 -25 30 -25 17 0 30 -4 30 -10 0 -6 -37
-10 -90 -10 l-90 0 17 35 c15 32 20 35 60 35 39 0 43 -2 43 -25z m1847 -57
c-3 -8 -6 -5 -6 6 -1 11 2 17 5 13 3 -3 4 -12 1 -19z m-1137 2 c0 -5 -20 -10
-45 -10 -25 0 -45 -4 -45 -10 0 -5 -11 -10 -25 -10 -14 0 -25 5 -25 10 0 6
-22 10 -50 10 -27 0 -50 5 -50 10 0 6 47 10 120 10 73 0 120 -4 120 -10z
m-710 -20 c0 -5 -20 -10 -45 -10 -25 0 -45 5 -45 10 0 6 20 10 45 10 25 0 45
-4 45 -10z m1135 -570 c-3 -5 -18 -10 -33 -9 l-27 1 25 8 c35 11 42 11 35 0z
m-78 -6 c-3 -3 -12 -4 -19 -1 -8 3 -5 6 6 6 11 1 17 -2 13 -5z"/>
<path d="M4465 2247 c-11 -7 -32 -20 -46 -29 -15 -10 -53 -24 -85 -32 -33 -8
-99 -29 -149 -47 -74 -26 -109 -33 -195 -37 -100 -4 -136 -14 -124 -33 3 -5
15 -9 26 -9 12 0 33 -10 46 -22 14 -13 22 -18 19 -12 -12 21 21 38 48 26 25
-12 98 -5 90 8 -3 4 12 11 33 15 20 4 42 10 47 15 12 9 96 36 179 56 32 8 70
23 85 33 53 37 67 36 98 -10 31 -47 53 -62 163 -115 41 -20 77 -40 80 -44 11
-15 138 -79 190 -95 30 -10 60 -22 67 -27 28 -22 81 -45 76 -32 -2 7 -11 15
-19 18 -8 3 -14 17 -14 31 0 19 -5 25 -21 25 -12 0 -86 34 -166 75 -79 41
-152 75 -162 75 -10 0 -24 7 -31 15 -7 8 -18 15 -26 15 -7 0 -19 6 -26 13 -7
7 -25 20 -39 29 -14 9 -31 29 -38 45 -11 27 -57 64 -78 62 -4 0 -17 -6 -28
-12z"/>
<path d="M4606 2175 c4 -8 8 -15 10 -15 2 0 4 7 4 15 0 8 -4 15 -10 15 -5 0
-7 -7 -4 -15z"/>
<path d="M6707 2173 c-2 -5 -7 -20 -11 -35 -3 -16 -13 -28 -21 -28 -9 0 -23
-12 -33 -28 -53 -85 -88 -122 -132 -137 l-45 -15 35 30 c19 17 46 35 59 41 38
15 17 22 -49 14 -47 -5 -63 -12 -72 -29 -6 -11 -15 -24 -20 -27 -15 -10 3 -41
21 -34 34 13 -5 -14 -44 -30 -25 -10 -35 -11 -27 -4 21 22 13 30 -17 15 -24
-13 -29 -22 -34 -71 -3 -31 -11 -63 -18 -71 -17 -21 9 -18 47 5 17 10 41 22
55 26 47 14 162 98 192 142 41 57 107 130 107 117 0 -5 -5 -15 -12 -22 -9 -9
-7 -12 9 -12 12 0 25 5 28 10 3 6 22 18 42 28 l35 19 -33 21 c-25 16 -29 22
-16 22 11 0 31 -7 45 -15 31 -17 125 -51 197 -71 l50 -13 -50 4 c-27 2 -58 7
-68 10 -15 6 -16 4 -8 -16 7 -20 16 -24 52 -27 66 -4 89 -11 89 -27 0 -21 8
-19 46 10 22 17 45 25 73 25 47 0 51 -12 19 -49 l-23 -26 26 23 c30 26 49 28
49 5 0 -13 7 -10 30 12 20 19 34 25 40 19 13 -13 -105 -118 -122 -108 -6 4 -8
3 -5 -3 4 -6 -4 -19 -16 -30 -28 -25 -125 -66 -142 -59 -7 2 -25 -2 -40 -10
-15 -8 -36 -14 -46 -14 -11 0 -19 -4 -19 -9 0 -4 -19 -13 -42 -19 -42 -11 -42
-11 -5 -6 20 3 37 3 37 1 0 -8 -143 -112 -170 -125 -14 -6 -52 -19 -85 -28
-33 -9 -64 -20 -70 -24 -14 -11 -86 -19 -233 -26 -115 -6 -122 -7 -105 -23 11
-11 28 -15 48 -13 29 4 29 3 13 -14 -17 -17 -20 -16 -73 10 -30 16 -69 44 -85
63 -25 29 -30 31 -30 14 0 -14 -9 -23 -25 -27 -14 -3 -25 -10 -25 -15 0 -7 15
-15 105 -54 26 -11 33 -22 50 -85 11 -39 24 -74 29 -77 5 -4 6 1 3 11 -16 42
-18 63 -5 73 7 6 51 18 98 27 47 9 104 21 128 26 60 14 82 12 82 -6 0 -25 -20
-54 -38 -55 -9 0 -12 -3 -5 -5 25 -10 53 16 53 49 1 37 20 67 44 67 11 0 16
-9 16 -31 l0 -31 39 32 c22 17 43 39 46 49 3 11 15 21 26 24 19 5 19 4 5 -18
-9 -14 -16 -41 -16 -60 0 -27 -8 -44 -29 -66 -32 -32 -61 -132 -61 -212 0 -28
-9 -61 -25 -91 -14 -26 -25 -55 -25 -64 0 -9 -13 -43 -28 -74 -20 -42 -42 -68
-81 -98 -30 -22 -58 -40 -62 -40 -3 0 -12 -15 -20 -32 -7 -18 -25 -49 -39 -68
-27 -36 -60 -96 -60 -111 0 -5 -13 -31 -30 -59 -16 -28 -30 -55 -30 -60 0 -5
-9 -24 -20 -42 l-20 -33 6 35 c4 19 15 52 25 72 l19 37 -23 3 c-20 3 -23 11
-30 83 -8 70 -13 85 -43 121 -18 23 -44 70 -57 105 -14 35 -35 82 -47 104 -40
68 -60 109 -60 120 0 17 -48 112 -60 120 -5 3 -10 16 -10 29 0 12 -13 35 -29
50 l-29 28 30 -108 c16 -60 37 -158 47 -218 14 -90 20 -110 35 -112 10 -1 19
-4 19 -6 1 -2 8 -13 14 -25 20 -36 83 -301 83 -350 0 -42 -1 -44 -26 -41 -21
2 -34 18 -66 78 -60 112 -89 164 -95 170 -9 8 7 -83 16 -95 13 -16 36 -114 28
-121 -11 -12 -37 5 -47 31 -15 41 -23 29 -16 -25 6 -48 6 -50 -17 -50 -24 0
-53 34 -133 150 -20 30 -34 47 -31 37 4 -10 7 -66 7 -123 0 -86 3 -104 15
-104 8 0 15 -7 15 -15 0 -13 22 -15 139 -15 83 0 142 -4 146 -10 3 -5 32 -10
65 -10 42 0 59 -4 64 -15 3 -8 11 -15 19 -15 8 0 13 -10 13 -22 -1 -13 6 -24
15 -26 12 -2 19 9 27 40 15 60 33 82 60 74 12 -4 22 -14 22 -22 0 -12 60 -14
405 -14 263 0 405 3 405 10 0 6 83 10 230 10 223 0 230 1 230 20 0 16 7 20 30
20 25 0 30 4 30 25 0 22 4 25 35 25 31 0 35 3 35 25 0 23 4 25 40 25 36 0 40
3 40 25 0 21 5 25 30 25 17 0 30 5 30 10 0 6 23 10 50 10 43 0 50 3 50 20 0
15 7 20 25 20 14 0 25 6 25 14 0 14 60 26 126 26 24 0 34 5 34 15 0 9 9 15 25
15 16 0 25 6 25 15 0 11 12 15 45 15 33 0 45 -4 45 -15 0 -10 10 -15 30 -15
28 0 30 -3 30 -35 l0 -35 75 0 75 0 0 -30 c0 -27 -3 -30 -30 -30 -16 0 -30 -4
-30 -10 0 -5 -20 -10 -45 -10 -33 0 -45 -4 -45 -15 0 -10 -10 -15 -30 -15 -28
0 -30 -2 -30 -40 0 -38 2 -40 30 -40 20 0 30 -5 30 -15 0 -10 -10 -15 -30 -15
-20 0 -30 -5 -30 -15 0 -10 10 -15 30 -15 17 0 30 -4 30 -10 0 -6 42 -10 105
-10 63 0 105 -4 105 -10 0 -6 32 -10 75 -10 43 0 75 -4 75 -10 0 -5 18 -10 40
-10 29 0 40 -4 40 -15 0 -12 14 -15 65 -15 51 0 65 -3 65 -15 0 -12 15 -15 75
-15 43 0 75 -4 75 -10 0 -6 33 -10 80 -10 64 0 80 -3 80 -15 0 -9 9 -15 25
-15 14 0 25 -4 25 -10 0 -5 20 -10 45 -10 25 0 45 -4 45 -10 0 -5 16 -10 35
-10 33 0 35 -2 35 -35 0 -34 1 -35 40 -35 22 0 40 -4 40 -10 0 -5 14 -10 30
-10 17 0 30 -4 30 -10 0 -5 14 -10 30 -10 25 0 30 -4 30 -25 l0 -25 120 0 120
0 0 245 0 245 -45 0 -45 0 0 100 0 100 -30 0 -30 0 0 80 0 80 -45 0 c-38 0
-45 3 -45 20 0 17 7 20 45 20 l45 0 0 40 0 40 -45 0 -45 0 0 110 0 110 -30 0
-30 0 0 75 0 75 -30 0 -30 0 0 60 0 60 -40 0 c-39 0 -40 1 -40 35 0 33 -2 35
-35 35 -28 0 -35 4 -35 20 0 17 -7 20 -45 20 -41 0 -45 2 -45 25 0 20 -5 25
-25 25 -16 0 -25 6 -25 15 0 10 -10 15 -30 15 -23 0 -30 4 -30 20 0 17 -7 20
-50 20 -27 0 -50 5 -50 10 0 6 -16 10 -35 10 -24 0 -35 5 -35 15 0 11 -11 15
-40 15 -22 0 -40 5 -40 10 0 6 -16 10 -35 10 -19 0 -35 5 -35 10 0 6 -13 10
-30 10 -16 0 -30 5 -30 10 0 6 -30 10 -70 10 -40 0 -70 4 -70 10 0 6 -42 10
-105 10 -98 0 -105 1 -105 20 0 17 -7 20 -44 20 -24 0 -46 4 -48 9 -1 6 -83
13 -180 17 -159 6 -178 9 -178 24 0 16 -17 18 -145 25 -129 6 -145 9 -145 25
0 14 -14 18 -93 23 -52 3 -110 4 -130 0 -28 -4 -46 0 -81 21 -24 14 -60 26
-78 26 -43 0 -108 18 -108 30 0 6 -36 10 -80 10 -47 0 -80 4 -80 10 0 6 -27
10 -60 10 -33 0 -68 4 -78 9 -9 5 -54 25 -99 45 -80 35 -118 44 -126 29z
m-281 -318 c-11 -8 -25 -15 -30 -15 -6 1 0 7 14 15 32 19 40 18 16 0z m619
-125 c-3 -5 -14 -10 -23 -9 -14 0 -13 2 3 9 27 11 27 11 20 0z m755 -545 l0
-35 -75 0 c-68 0 -75 2 -75 20 0 16 -7 20 -30 20 -20 0 -30 5 -30 15 0 12 18
15 105 15 l105 0 0 -35z"/>
<path d="M6630 2150 c0 -5 7 -7 15 -4 8 4 15 8 15 10 0 2 -7 4 -15 4 -8 0 -15
-4 -15 -10z"/>
<path d="M4428 2113 c7 -3 16 -2 19 1 4 3 -2 6 -13 5 -11 0 -14 -3 -6 -6z"/>
<path d="M4270 2100 c0 -5 -12 -10 -27 -10 -16 0 -35 -5 -43 -10 -21 -14 18
-13 76 1 48 12 59 29 19 29 -14 0 -25 -4 -25 -10z"/>
<path d="M6570 2074 c0 -8 5 -12 10 -9 6 3 10 10 10 16 0 5 -4 9 -10 9 -5 0
-10 -7 -10 -16z"/>
<path d="M6840 2050 c0 -14 9 -43 20 -65 l20 -40 -5 42 c-4 33 -1 44 12 52 17
10 16 10 -2 11 -12 0 -26 5 -33 12 -9 9 -12 7 -12 -12z"/>
<path d="M4347 2053 c-8 -7 21 -43 35 -43 4 0 8 11 8 25 0 18 -5 25 -18 25
-10 0 -22 -3 -25 -7z"/>
<path d="M3690 2030 c0 -19 -7 -20 -120 -20 -73 0 -120 -4 -120 -10 0 -5 -17
-10 -37 -10 -21 0 -68 -3 -105 -7 -55 -5 -68 -9 -68 -23 0 -15 -16 -18 -112
-23 -62 -4 -157 -7 -210 -7 -90 0 -98 -2 -98 -19 0 -17 -12 -20 -145 -26 -80
-4 -145 -11 -145 -16 0 -5 -16 -9 -35 -9 -28 0 -35 -4 -35 -20 0 -19 -7 -20
-105 -20 -63 0 -105 -4 -105 -10 0 -5 -20 -10 -45 -10 -38 0 -45 -3 -45 -20 0
-16 -7 -20 -35 -20 -19 0 -35 -4 -35 -10 0 -5 -18 -10 -40 -10 -29 0 -40 -4
-40 -15 0 -10 -10 -15 -30 -15 -16 0 -30 -4 -30 -10 0 -5 -13 -10 -30 -10 -23
0 -30 -4 -30 -20 0 -17 -7 -20 -45 -20 -43 0 -45 -1 -45 -30 0 -27 -3 -30 -30
-30 -27 0 -30 -3 -30 -30 0 -29 -2 -30 -45 -30 -45 0 -45 0 -45 -35 0 -32 -2
-35 -30 -35 -28 0 -30 -3 -30 -35 0 -32 -2 -35 -30 -35 -30 0 -30 -1 -30 -55
l0 -55 -45 0 -45 0 0 -65 c0 -63 -1 -65 -25 -65 -25 0 -25 -1 -25 -80 l0 -80
-50 0 -50 0 0 -35 c0 -32 -2 -35 -30 -35 -28 0 -30 -3 -30 -35 0 -32 2 -35 30
-35 l30 0 0 -95 0 -95 -30 0 -30 0 0 -100 0 -100 30 0 c27 0 30 -3 30 -30 0
-27 -3 -30 -30 -30 -29 0 -30 -2 -30 -45 l0 -45 -40 0 -40 0 0 -55 0 -55 40 0
c33 0 40 -3 40 -20 0 -17 -7 -20 -40 -20 l-40 0 0 -55 0 -55 40 0 c36 0 40 -2
40 -25 l0 -25 105 0 105 0 0 25 c0 23 4 25 45 25 38 0 45 3 45 20 0 16 7 20
30 20 25 0 30 4 30 25 0 24 2 25 75 25 43 0 75 4 75 10 0 6 32 10 75 10 43 0
75 4 75 10 0 6 40 10 100 10 60 0 100 4 100 10 0 6 33 10 80 10 64 0 80 3 80
15 0 12 13 15 55 15 30 0 55 5 55 10 0 6 48 10 125 10 104 0 125 2 125 15 0
13 27 15 180 15 153 0 180 -2 180 -15 0 -13 27 -15 180 -15 l180 0 0 60 0 60
-45 0 -45 0 0 70 0 70 45 0 c33 0 45 4 45 15 0 13 27 15 180 15 153 0 180 -2
180 -15 0 -12 14 -15 70 -15 40 0 70 -4 70 -10 0 -6 52 -10 135 -10 113 0 135
-2 135 -15 0 -13 24 -15 160 -15 136 0 160 2 160 15 0 10 10 15 30 15 20 0 30
-5 30 -15 0 -11 11 -15 40 -15 29 0 40 -4 40 -15 0 -11 -11 -15 -40 -15 -22 0
-40 -4 -40 -10 0 -6 -29 -10 -67 -10 -111 0 -143 -8 -143 -36 0 -20 -5 -24
-30 -24 -16 0 -30 -4 -30 -10 0 -5 14 -10 30 -10 17 0 30 5 30 10 0 6 11 10
25 10 14 0 25 5 25 10 0 6 23 10 50 10 28 0 50 -4 50 -10 0 -5 14 -10 30 -10
17 0 30 -4 30 -10 0 -6 -33 -10 -80 -10 -47 0 -80 -4 -80 -10 0 -5 23 -10 50
-10 l50 0 0 -40 c0 -38 2 -40 30 -40 20 0 30 -5 30 -15 0 -10 -10 -15 -30 -15
-16 0 -30 -4 -30 -10 0 -5 -22 -10 -50 -10 -27 0 -50 5 -50 10 0 6 -43 10
-110 10 l-110 0 0 -30 c0 -27 -3 -30 -30 -30 -25 0 -30 -4 -30 -25 0 -21 5
-25 30 -25 23 0 30 -4 30 -20 0 -18 7 -20 55 -20 42 0 55 -3 55 -15 0 -12 13
-15 55 -15 30 0 55 -4 55 -10 0 -7 392 -10 1155 -10 763 0 1155 3 1155 10 0 6
-40 10 -100 10 -82 0 -100 3 -100 15 0 10 -11 15 -35 15 -24 0 -35 -5 -35 -15
0 -11 -12 -15 -45 -15 -33 0 -45 4 -45 15 0 12 -13 15 -55 15 -42 0 -55 -3
-55 -15 0 -11 -12 -15 -50 -15 -38 0 -50 4 -50 15 0 12 -14 15 -70 15 -40 0
-70 4 -70 10 0 6 -35 10 -85 10 -50 0 -85 4 -85 10 0 6 -11 10 -25 10 -14 0
-25 -4 -25 -10 0 -5 -16 -10 -35 -10 -19 0 -35 5 -35 10 0 6 -80 10 -220 10
-189 0 -220 2 -220 15 0 10 -11 15 -35 15 -19 0 -35 5 -35 10 0 6 -18 10 -40
10 -22 0 -40 5 -40 10 0 6 -13 10 -30 10 l-30 0 0 60 0 60 30 0 c28 0 30 3 30
35 l0 35 -60 0 c-57 0 -60 1 -60 25 0 23 -3 24 -77 27 -43 2 13 4 124 5 118 1
205 -2 208 -8 8 -11 55 -12 55 0 0 5 96 6 220 3 l220 -5 -7 34 c-3 19 -12 50
-19 69 -10 28 -13 31 -13 12 -1 -36 -42 -25 -60 16 -19 41 -61 46 -61 7 0 -19
-5 -25 -21 -25 -15 0 -25 11 -36 40 -17 43 -32 38 -33 -10 -1 -37 -23 -60 -62
-64 -18 -1 -44 -9 -57 -16 -25 -13 -35 -7 -61 40 -9 17 11 66 48 117 23 33 30
95 12 123 -7 12 -10 11 -16 -5 -4 -11 -26 -39 -48 -62 -22 -23 -45 -52 -52
-65 l-12 -23 -7 27 c-5 21 0 37 25 72 17 25 34 46 38 46 14 0 45 86 50 139 4
43 1 56 -12 63 -12 7 -16 26 -17 81 l-2 72 -8 -62 c-4 -34 -12 -70 -17 -80 -5
-10 -15 -45 -22 -78 -15 -79 -52 -175 -66 -175 -7 0 -20 12 -29 27 -22 32
-115 123 -127 123 -4 0 -8 10 -8 23 0 12 -13 38 -29 57 -15 19 -32 51 -36 70
-7 34 -6 34 10 15 15 -18 -13 37 -55 106 -19 33 -137 132 -148 125 -14 -8
-234 221 -230 240 5 29 24 27 57 -5 35 -34 43 -38 35 -16 -10 25 57 -3 90 -39
166 -180 215 -216 176 -127 -11 24 -20 60 -20 80 0 25 -8 45 -25 64 l-26 27
31 0 c16 0 30 -4 30 -9 0 -5 27 -11 60 -13 33 -2 65 -9 71 -15 6 -6 15 -51 20
-99 5 -48 11 -89 13 -91 1 -2 6 29 9 69 4 48 11 76 22 84 8 6 15 16 15 23 0 6
9 11 20 11 23 0 26 -28 11 -92 -5 -21 -5 -38 0 -38 4 0 10 -21 12 -47 2 -27 4
3 5 66 2 90 6 121 21 150 11 20 22 44 25 54 3 9 17 22 32 27 21 9 25 14 19 33
-4 12 -10 43 -12 69 l-5 47 -22 -27 c-30 -38 -49 -78 -42 -90 7 -12 -41 -112
-54 -112 -6 0 -10 11 -10 24 0 17 -7 25 -25 28 -21 4 -25 1 -25 -18 0 -29 -12
-36 -41 -26 -15 6 -18 11 -11 16 7 4 12 11 12 17 0 13 -48 11 -52 -2 -3 -8
-32 -8 -108 1 -58 7 -132 16 -166 19 -34 3 -67 11 -75 17 -8 6 -72 37 -144 69
-71 32 -135 62 -141 66 -6 5 -32 15 -56 23 -71 21 -174 100 -188 142 -7 20
-23 45 -36 57 -13 11 -24 24 -24 28 0 5 -19 36 -41 69 l-42 60 -93 0 c-87 0
-94 -1 -94 -20z m1092 -911 c20 -19 46 -54 58 -79 l22 -45 -66 70 c-36 39 -66
74 -66 79 0 5 -8 19 -17 30 -17 20 -17 20 7 0 14 -12 41 -37 62 -55z m330
-499 c12 -25 34 -60 50 -78 30 -35 61 -99 55 -116 -2 -6 -20 20 -41 57 -40 71
-51 83 -61 67 -8 -13 -62 -13 -70 0 -4 6 1 33 11 61 17 47 17 51 0 82 l-17 32
25 -30 c15 -16 36 -50 48 -75z m-552 -235 c0 -11 -11 -15 -40 -15 -29 0 -40 4
-40 15 0 11 11 15 40 15 29 0 40 -4 40 -15z m130 0 c0 -10 -11 -15 -35 -15
-24 0 -35 5 -35 15 0 10 11 15 35 15 24 0 35 -5 35 -15z m140 -45 c0 -5 -13
-10 -30 -10 -16 0 -30 5 -30 10 0 6 14 10 30 10 17 0 30 -4 30 -10z m0 -45 c0
-10 -10 -15 -30 -15 -20 0 -30 -5 -30 -15 0 -11 -11 -15 -40 -15 -22 0 -40 -4
-40 -10 0 -5 -16 -10 -35 -10 -24 0 -35 -5 -35 -15 0 -10 -10 -15 -30 -15 -25
0 -30 4 -30 25 0 21 5 25 30 25 20 0 30 5 30 15 0 10 11 15 35 15 24 0 35 5
35 15 0 12 14 15 70 15 56 0 70 -3 70 -15z"/>
<path d="M4485 2040 c3 -5 11 -10 16 -10 6 0 7 5 4 10 -3 6 -11 10 -16 10 -6
0 -7 -4 -4 -10z"/>
<path d="M4255 2031 c-3 -5 -1 -12 5 -16 5 -3 10 1 10 9 0 18 -6 21 -15 7z"/>
<path d="M6763 2002 c-2 -11 -18 -29 -34 -41 -16 -12 -29 -29 -29 -37 0 -19
-20 -39 -47 -48 -12 -4 -26 -13 -33 -21 -6 -8 11 -3 39 11 28 13 57 24 64 24
10 0 93 35 104 44 1 1 -4 20 -11 41 -15 44 -44 59 -53 27z"/>
<path d="M4060 2000 c0 -5 6 -7 14 -4 7 3 20 -1 27 -8 25 -24 67 -47 73 -41 3
4 -7 12 -24 19 -16 7 -30 20 -30 29 0 10 -10 15 -30 15 -16 0 -30 -4 -30 -10z"/>
<path d="M4674 1981 c10 -10 27 -21 39 -24 20 -5 19 -3 -6 19 -33 28 -58 32
-33 5z"/>
<path d="M4590 1926 c0 -2 7 -7 16 -10 8 -3 12 -2 9 4 -6 10 -25 14 -25 6z"/>
<path d="M7027 1877 c-87 -51 -95 -71 -19 -47 38 13 86 51 103 83 5 9 8 17 7
17 -2 -1 -43 -24 -91 -53z"/>
<path d="M4411 1906 c-15 -18 1 -30 29 -21 24 8 26 21 4 29 -21 8 -20 8 -33
-8z"/>
<path d="M6958 1903 c6 -2 18 -2 25 0 6 3 1 5 -13 5 -14 0 -19 -2 -12 -5z"/>
<path d="M4050 1891 c0 -13 102 -101 118 -101 9 0 -4 15 -28 33 -24 17 -54 42
-67 54 -13 12 -23 19 -23 14z"/>
<path d="M4886 1891 c5 -5 25 -12 44 -15 l35 -7 -34 16 c-37 17 -60 20 -45 6z"/>
<path d="M4270 1880 c0 -5 15 -17 33 -26 l32 -17 -24 27 c-25 27 -41 33 -41
16z"/>
<path d="M6866 1874 c-17 -12 -17 -14 -4 -14 9 0 20 5 23 11 11 17 2 18 -19 3z"/>
<path d="M5015 1849 c22 -10 49 -18 60 -18 11 0 -5 9 -35 19 -69 24 -77 24
-25 -1z"/>
<path d="M4536 1834 c-10 -25 -1 -27 19 -4 15 17 16 20 3 20 -9 0 -19 -7 -22
-16z"/>
<path d="M4800 1830 c0 -6 7 -10 15 -10 8 0 15 2 15 4 0 2 -7 6 -15 10 -8 3
-15 1 -15 -4z"/>
<path d="M4585 1800 c-16 -7 -17 -9 -3 -9 9 -1 20 4 23 9 7 11 7 11 -20 0z"/>
<path d="M4934 1795 c8 -8 21 -15 28 -15 8 1 6 6 -6 15 -26 20 -42 19 -22 0z"/>
<path d="M5160 1796 c0 -18 30 -30 43 -17 5 5 6 14 3 20 -10 16 -46 13 -46 -3z"/>
<path d="M4517 1750 c6 -21 36 -35 53 -25 6 4 1 14 -14 26 -31 24 -45 24 -39
-1z"/>
<path d="M6753 1760 c-13 -5 -23 -15 -23 -23 0 -15 -53 -57 -71 -57 -7 0 -10
-2 -7 -5 3 -3 45 5 94 19 60 16 81 25 64 27 -19 3 -24 9 -22 27 4 24 -1 25
-35 12z"/>
<path d="M4817 1720 c-11 -17 -17 -33 -15 -34 13 -12 50 -26 65 -25 16 0 16 1
-2 8 -13 5 -22 20 -25 45 l-5 38 -18 -32z"/>
<path d="M5110 1731 c0 -11 -3 -28 -6 -38 -4 -14 -2 -13 15 5 11 13 17 30 14
37 -8 21 -23 18 -23 -4z"/>
<path d="M6238 1713 c-22 -6 -23 -17 -3 -33 18 -15 20 -13 29 18 7 22 5 23
-26 15z"/>
<path d="M6164 1659 c-7 -13 32 -48 54 -49 8 0 5 11 -10 30 -24 32 -33 36 -44
19z"/>
<path d="M6270 1656 c0 -2 7 -9 15 -16 13 -11 14 -10 9 4 -5 14 -24 23 -24 12z"/>
<path d="M6689 1636 c-84 -25 -102 -34 -94 -46 7 -11 57 6 150 50 53 25 36 23
-56 -4z"/>
<path d="M4961 1634 c0 -11 3 -14 6 -6 3 7 2 16 -1 19 -3 4 -6 -2 -5 -13z"/>
<path d="M4450 1606 c0 -2 7 -7 16 -10 8 -3 12 -2 9 4 -6 10 -25 14 -25 6z"/>
<path d="M4588 1593 c7 -3 16 -2 19 1 4 3 -2 6 -13 5 -11 0 -14 -3 -6 -6z"/>
<path d="M6500 1575 c0 -9 9 -15 24 -15 30 0 42 15 20 24 -27 10 -44 7 -44 -9z"/>
<path d="M6430 1570 c0 -5 5 -10 11 -10 5 0 7 5 4 10 -3 6 -8 10 -11 10 -2 0
-4 -4 -4 -10z"/>
<path d="M5203 1367 c-1 -146 0 -144 26 31 6 40 13 77 16 82 4 7 -24 30 -37
30 -2 0 -4 -64 -5 -143z"/>
<path d="M5151 1428 l1 -73 9 60 c5 33 11 66 14 73 2 6 -2 12 -10 12 -12 0
-15 -15 -14 -72z"/>
<path d="M5854 1457 c3 -10 6 -25 6 -33 0 -8 7 -14 15 -14 20 0 19 10 -6 40
-15 18 -19 20 -15 7z"/>
<path d="M6027 1463 c-10 -10 -8 -56 3 -73 7 -11 10 -2 10 33 0 48 -1 52 -13
40z"/>
<path d="M6140 1415 c0 -27 2 -46 5 -44 7 8 9 78 2 85 -4 4 -7 -14 -7 -41z"/>
<path d="M5318 1383 c-18 -72 -35 -243 -23 -231 4 4 11 29 16 55 5 26 19 78
31 115 20 62 20 71 7 99 l-15 31 -16 -69z"/>
<path d="M4610 1406 c0 -2 8 -10 18 -17 15 -13 16 -12 3 4 -13 16 -21 21 -21
13z"/>
<path d="M6465 1400 c-3 -6 1 -7 9 -4 18 7 21 14 7 14 -6 0 -13 -4 -16 -10z"/>
<path d="M5904 1373 c-9 -3 -9 -10 0 -28 12 -26 26 -33 25 -12 -1 23 -14 44
-25 40z"/>
<path d="M4860 1359 c0 -6 10 -38 23 -70 31 -81 49 -78 45 9 l-3 67 -32 3
c-21 2 -33 -1 -33 -9z"/>
<path d="M6190 1350 c0 -11 4 -20 9 -20 5 0 7 9 4 20 -3 11 -7 20 -9 20 -2 0
-4 -9 -4 -20z"/>
<path d="M6311 1361 c-14 -9 -9 -41 6 -41 4 0 13 11 20 25 12 27 2 33 -26 16z"/>
<path d="M6490 1360 c-9 -6 -10 -10 -3 -10 6 0 15 5 18 10 8 12 4 12 -15 0z"/>
<path d="M6086 1314 c-4 -9 -4 -19 -1 -22 2 -3 7 3 11 12 4 9 4 19 1 22 -2 3
-7 -3 -11 -12z"/>
<path d="M5372 1268 c-6 -24 -15 -63 -18 -88 -4 -25 -13 -70 -20 -100 -8 -30
-14 -97 -14 -150 l1 -95 29 55 c16 30 29 61 30 68 0 7 8 32 19 55 10 23 21 50
24 60 4 9 16 17 27 17 27 0 26 26 -1 33 -18 5 -20 11 -15 34 4 15 9 56 13 91
l6 62 -34 0 c-32 0 -36 -3 -47 -42z"/>
<path d="M5980 1300 c1 -8 9 -31 20 -50 14 -26 19 -30 20 -15 0 11 -9 34 -20
50 -11 17 -20 23 -20 15z"/>
<path d="M6517 1303 c-4 -3 -7 -23 -7 -44 0 -20 -8 -57 -19 -81 -11 -26 -15
-51 -11 -63 7 -19 8 -18 14 5 4 14 15 41 23 60 9 19 22 56 29 82 11 44 11 48
-5 48 -10 0 -21 -3 -24 -7z"/>
<path d="M6133 1255 c0 -22 2 -30 4 -17 2 12 2 30 0 40 -3 9 -5 -1 -4 -23z"/>
<path d="M6586 1256 c-4 -22 -16 -58 -26 -80 -31 -69 -70 -180 -61 -170 19 18
78 131 93 176 10 29 13 58 9 79 l-7 34 -8 -39z"/>
<path d="M6450 1264 c0 -8 5 -12 10 -9 6 3 10 10 10 16 0 5 -4 9 -10 9 -5 0
-10 -7 -10 -16z"/>
<path d="M6250 1223 c0 -22 2 -25 10 -13 13 20 13 40 0 40 -5 0 -10 -12 -10
-27z"/>
<path d="M6180 1201 c0 -22 6 -44 15 -51 13 -11 15 -6 15 39 0 39 -4 51 -15
51 -11 0 -15 -11 -15 -39z"/>
<path d="M6327 1209 c-12 -7 -17 -23 -17 -54 0 -25 4 -45 8 -45 7 0 33 101 28
107 0 1 -9 -3 -19 -8z"/>
<path d="M6386 1157 c-14 -47 -16 -73 -9 -89 8 -19 11 -17 27 26 14 38 16 57
9 90 l-9 41 -18 -68z"/>
<path d="M6044 1187 c-8 -9 1 -35 33 -96 24 -46 43 -90 43 -98 0 -7 7 -30 16
-51 13 -32 17 -35 25 -19 12 20 35 23 42 5 3 -7 6 26 6 74 1 48 -3 89 -8 93
-6 3 -7 -17 -4 -50 9 -82 -17 -75 -62 19 -19 41 -42 79 -50 86 -8 7 -15 18
-15 26 0 18 -13 24 -26 11z"/>
<path d="M4884 1155 c13 -19 49 -62 80 -96 l56 -62 -1 64 c0 35 -3 58 -6 52
-6 -18 -42 -16 -49 1 -3 8 -16 17 -30 20 -13 4 -31 17 -40 31 -9 14 -20 25
-25 25 -5 0 2 -16 15 -35z"/>
<path d="M5520 1172 c0 -9 -2 -35 -5 -57 l-5 -40 14 30 c25 55 28 72 11 79
-10 3 -15 -1 -15 -12z"/>
<path d="M6574 1104 c-19 -46 -49 -107 -73 -149 -9 -16 -21 -39 -25 -49 -7
-20 -7 -20 16 0 43 37 55 58 83 141 28 86 28 127 -1 57z"/>
<path d="M5064 1045 c2 -50 11 -84 29 -120 28 -53 27 -54 52 30 20 69 20 72
-22 82 -29 7 -39 15 -50 43 -13 34 -13 32 -9 -35z"/>
<path d="M6433 1005 c-3 -9 -3 -18 -1 -21 3 -3 8 4 11 16 6 23 -1 27 -10 5z"/>
<path d="M5538 932 c-17 -66 -14 -82 13 -82 17 0 19 8 19 64 0 36 -4 67 -9 70
-5 3 -15 -20 -23 -52z"/>
<path d="M6251 938 l1 -53 14 33 c11 24 12 38 4 52 -16 31 -20 24 -19 -32z"/>
<path d="M6337 983 c-4 -3 -7 -11 -7 -17 0 -6 5 -5 12 2 6 6 9 14 7 17 -3 3
-9 2 -12 -2z"/>
<path d="M5622 955 c0 -16 2 -22 5 -12 2 9 2 23 0 30 -3 6 -5 -1 -5 -18z"/>
<path d="M5420 949 c0 -4 -16 -41 -35 -82 -35 -74 -43 -103 -25 -92 12 7 70
125 70 142 0 7 7 16 16 21 14 8 13 10 -5 15 -11 3 -21 1 -21 -4z"/>
<path d="M5000 930 c0 -12 73 -122 98 -148 10 -11 12 -8 12 16 0 17 -6 32 -14
35 -8 3 -33 29 -55 57 -23 29 -41 46 -41 40z"/>
<path d="M6360 889 c-7 -11 -10 -23 -7 -25 2 -2 9 7 15 21 14 30 7 33 -8 4z"/>
<path d="M5900 890 c0 -5 -6 -10 -14 -10 -10 0 -6 -15 15 -57 16 -32 29 -64
29 -70 0 -7 4 -13 9 -13 5 0 8 8 6 18 -2 9 -9 45 -16 80 -6 34 -16 62 -20 62
-5 0 -9 -4 -9 -10z"/>
<path d="M5740 864 c0 -5 7 -19 15 -30 8 -10 15 -25 15 -31 0 -16 -32 -17 -48
-1 -9 9 -12 4 -12 -24 0 -20 4 -39 9 -43 5 -3 13 -20 17 -38 10 -46 113 -200
114 -169 0 34 -63 292 -72 292 -4 0 -14 12 -22 28 -8 15 -15 22 -16 16z"/>
<path d="M5671 851 c-19 -12 -1 -40 22 -32 15 5 15 9 5 24 -9 11 -18 14 -27 8z"/>
<path d="M6337 827 c-11 -29 -9 -43 4 -30 6 6 9 19 7 29 -3 18 -4 18 -11 1z"/>
<path d="M6210 814 c0 -7 9 -22 20 -35 25 -31 26 -12 0 21 -11 14 -20 20 -20
14z"/>
<path d="M5520 804 c0 -17 25 -91 34 -103 6 -8 16 -30 22 -50 l12 -36 1 56 c1
42 -3 58 -14 63 -9 3 -15 19 -15 41 0 28 -4 35 -20 35 -11 0 -20 -3 -20 -6z"/>
<path d="M5398 758 c-15 -25 -48 -137 -48 -165 0 -16 2 -15 18 2 17 18 57 173
48 182 -2 2 -10 -7 -18 -19z"/>
<path d="M5630 736 c0 -60 19 -136 34 -136 7 0 10 24 8 74 -3 58 -8 78 -23 92
-18 17 -19 16 -19 -30z"/>
<path d="M5480 736 c0 -9 -3 -16 -8 -16 -4 0 -13 -19 -20 -42 -15 -47 -5 -62
35 -51 17 4 23 1 23 -11 0 -9 7 -16 16 -16 13 0 15 7 9 38 -4 20 -13 44 -21
53 -8 8 -14 23 -14 32 0 9 -4 19 -10 22 -5 3 -10 -1 -10 -9z"/>
<path d="M6258 634 c-2 -19 0 -34 4 -34 4 0 8 8 8 18 0 10 5 23 11 29 7 7 6
12 -4 16 -11 4 -16 -4 -19 -29z"/>
<path d="M8220 590 c0 -5 20 -10 45 -10 25 0 45 5 45 10 0 6 -20 10 -45 10
-25 0 -45 -4 -45 -10z"/>
<path d="M5281 526 c-6 -16 -10 -31 -7 -33 7 -8 28 37 23 50 -3 7 -10 -1 -16
-17z"/>
<path d="M4100 255 c0 -24 3 -25 55 -25 52 0 55 1 55 25 0 24 -3 25 -55 25
-52 0 -55 -1 -55 -25z"/>
</g>
</svg>
