<?xml version="1.0" standalone="no"?><!DOCTYPE svg PUBLIC "-//W3C//DTD SVG 20010904//EN" "http://www.w3.org/TR/2001/REC-SVG-20010904/DTD/svg10.dtd"><svg xmlns="http://www.w3.org/2000/svg" version="1.0" width="796.000000pt" height="769.000000pt" viewBox="0 0 796.000000 769.000000" preserveAspectRatio="xMidYMid meet">

<g transform="translate(0.000000,769.000000) scale(0.100000,-0.100000)" fill="#ffffff" stroke="none">
<path d="M3465 6668 c-517 -58 -939 -438 -1058 -953 -20 -86 -21 -124 -24 -827 l-4 -736 -25 -6 c-39 -10 -101 -73 -120 -122 -12 -33 -15 -60 -11 -104 l7 -60 -60 0 -60 0 -291 -181 -290 -182 -280 -325 -279 -325 0 -617 0 -618 -27 -58 c-38 -82 -41 -208 -8 -306 12 -37 20 -69 17 -73 -3 -3 -24 -5 -47 -5 -52 0 -91 -34 -107 -96 l-12 -42 -75 -4 c-84 -5 -139 -28 -182 -75 -48 -51 -61 -90 -57 -163 5 -86 36 -137 111 -180 l52 -30 2983 0 c3296 0 3018 -6 3091 63 105 100 89 263 -34 345 -42 28 -53 42 -67 85 -9 29 -29 62 -43 75 -24 20 -35 22 -164 22 -76 0 -140 2 -143 5 -3 4 5 36 17 73 33 98 30 224 -8 306 l-27 58 0 374 0 373 83 148 c46 81 263 465 482 853 219 388 415 734 435 770 20 36 140 250 268 476 139 246 232 421 232 437 0 34 7 28 -425 304 -1260 804 -1119 717 -1146 710 -10 -3 -208 -126 -439 -274 -231 -147 -470 -299 -530 -338 -61 -38 -168 -107 -239 -152 -71 -46 -131 -83 -135 -83 -3 0 -6 69 -6 153 0 275 -33 436 -130 632 -66 134 -117 206 -220 312 -204 210 -460 332 -761 363 -113 11 -130 11 -244 -2z m-501 -623 c107 -66 196 -123 196 -127 0 -4 -14 -31 -31 -58 -23 -38 -36 -50 -48 -45 -31 12 -401 240 -401 248 0 16 66 107 77 105 6 -2 99 -57 207 -123z m1515 75 c17 -28 31 -54 31 -58 0 -4 -12 -14 -28 -23 -15 -9 -104 -64 -199 -123 -94 -58 -175 -106 -181 -106 -5 0 -23 23 -41 52 -26 42 -30 53 -19 64 7 7 74 50 148 95 211 128 245 148 252 149 3 0 20 -23 37 -50z m2053 -421 c183 -117 360 -230 393 -252 127 -85 605 -440 605 -449 0 -6 -22 -52 -49 -102 -27 -50 -104 -199 -171 -331 -240 -470 -345 -665 -570 -1065 -289 -512 -537 -951 -550 -970 -12 -18 -8 -23 -106 149 -39 70 -120 214 -181 321 -60 107 -171 303 -245 435 -75 132 -173 305 -218 385 -91 161 -194 343 -280 495 -31 55 -131 233 -223 396 -92 163 -167 301 -167 305 1 5 150 103 332 219 181 115 332 215 335 221 6 16 111 80 144 88 15 3 42 21 60 39 38 38 458 307 480 307 8 0 23 7 34 16 11 8 25 12 31 10 7 -3 162 -100 346 -217z m-3640 -160 c112 -55 207 -105 212 -110 6 -5 -71 -48 -195 -108 -112 -55 -210 -101 -216 -103 -10 -2 -13 40 -14 187 0 233 0 235 6 235 3 0 96 -45 207 -101z m1578 -114 c0 -118 -3 -215 -7 -214 -5 0 -105 49 -223 108 l-215 109 214 106 c118 58 218 106 223 106 4 0 8 -97 8 -215z m-785 -410 c122 -32 209 -114 245 -233 11 -35 20 -66 20 -68 0 -2 -158 -4 -351 -4 l-351 0 7 33 c18 89 100 203 174 241 39 21 127 44 166 45 17 1 58 -6 90 -14z m1311 -662 c163 -290 371 -658 382 -678 7 -12 -15 3 -167 107 -113 77 -115 78 -177 78 l-64 0 7 60 c4 44 1 71 -11 104 -19 49 -81 112 -121 122 l-25 6 0 249 c0 137 2 249 4 249 2 0 79 -134 172 -297z m-1904 -1071 c70 -31 141 -102 174 -175 24 -53 28 -74 28 -148 l0 -87 161 -46 c146 -43 171 -47 285 -50 105 -3 132 -7 168 -25 123 -63 222 -223 222 -361 0 -46 -34 -131 -56 -137 -6 -2 -44 53 -84 123 l-74 127 -18 -53 c-10 -29 -22 -58 -28 -65 -5 -7 -13 -47 -16 -89 -6 -64 -5 -76 7 -71 21 8 66 -42 52 -56 -15 -15 7 -59 30 -59 13 0 17 -8 17 -35 0 -19 -4 -35 -9 -35 -22 0 -42 -33 -36 -59 7 -33 -37 -83 -56 -64 -14 14 -59 -4 -59 -24 0 -9 -13 -13 -40 -13 -27 0 -40 4 -40 13 0 20 -45 38 -59 24 -16 -16 -63 31 -55 55 8 25 -4 58 -22 58 -10 0 -14 12 -14 40 0 22 4 40 9 40 5 0 16 12 26 26 12 19 14 29 6 37 -8 8 -5 17 11 34 12 13 27 23 33 23 7 0 9 14 7 36 l-4 36 -43 -5 c-23 -4 -104 -12 -179 -18 -121 -11 -136 -14 -136 -31 0 -10 6 -18 13 -18 22 0 58 -45 47 -56 -15 -15 5 -64 25 -64 21 0 21 -68 0 -76 -24 -9 -38 -43 -26 -58 8 -9 3 -20 -18 -40 -18 -17 -31 -24 -35 -17 -8 13 -66 -13 -66 -29 0 -15 -68 -12 -77 4 -13 21 -49 36 -60 25 -6 -6 -19 1 -37 20 -17 18 -24 31 -17 36 13 7 -4 45 -25 58 -18 11 -19 77 -1 77 19 0 41 50 28 63 -12 12 24 57 46 57 8 0 13 13 13 38 0 29 -9 50 -35 83 -55 72 -67 117 -70 264 -2 131 -11 172 -48 220 -15 20 -16 19 -54 -16 -56 -53 -108 -89 -127 -89 -19 0 -107 48 -118 65 -12 16 -9 60 4 73 7 7 20 12 29 12 11 0 29 26 53 78 20 42 49 87 64 99 l27 23 -63 63 c-34 34 -62 65 -62 68 0 13 90 69 135 83 68 22 185 16 247 -12z m-1132 -1452 c105 -29 128 -40 300 -149 193 -122 200 -127 200 -155 0 -35 -19 -93 -39 -117 l-18 -22 -172 89 c-133 69 -171 93 -168 106 3 9 -28 -8 -75 -43 -44 -32 -83 -59 -88 -59 -5 0 -14 17 -20 38 -16 49 -38 72 -68 72 -30 0 -62 -26 -62 -51 0 -10 40 -138 90 -285 63 -187 87 -271 81 -283 -22 -39 -101 -91 -140 -91 -15 0 -23 12 -35 54 -9 30 -16 67 -16 83 0 34 -172 555 -195 589 -28 43 -105 21 -105 -30 0 -12 40 -140 90 -285 102 -300 102 -285 12 -342 -84 -53 -81 -56 -157 174 -102 305 -123 357 -151 367 -33 13 -72 -4 -80 -34 -4 -17 17 -94 66 -242 l73 -218 -37 -33 c-66 -61 -71 -55 -145 171 l-66 198 44 39 c30 27 44 47 44 64 -1 31 -29 65 -55 65 -18 0 -18 1 -2 33 28 53 144 159 227 206 158 89 316 124 507 114 52 -3 124 -13 160 -23z m3693 9 c79 -14 194 -59 281 -110 75 -45 179 -142 209 -197 18 -31 18 -32 -2 -32 -27 0 -63 -48 -55 -74 3 -12 25 -37 48 -57 l41 -37 -66 -198 c-74 -226 -79 -232 -145 -171 l-37 33 73 218 c76 229 80 259 36 276 -37 14 -65 1 -85 -39 -10 -20 -55 -147 -100 -283 -93 -280 -88 -273 -173 -219 -90 57 -91 42 12 342 49 145 90 272 90 283 0 53 -76 76 -105 32 -25 -37 -195 -557 -195 -594 0 -57 -29 -132 -52 -132 -39 0 -117 52 -139 92 -6 12 17 93 81 282 50 146 90 273 90 282 0 27 -30 54 -60 54 -32 0 -53 -22 -70 -72 -6 -21 -15 -38 -20 -38 -4 0 -41 24 -81 54 -41 30 -75 49 -77 43 -1 -7 -78 -52 -170 -100 -120 -63 -171 -85 -182 -79 -18 11 -49 87 -49 123 -1 14 7 33 17 41 33 29 347 223 382 236 155 59 319 72 503 41z m-3636 -386 c4 -2 30 -16 57 -31 l50 -27 59 -178 59 -179 -33 -35 c-40 -41 -79 -63 -112 -63 -22 0 -29 17 -111 261 -49 143 -86 262 -84 264 1 2 23 15 48 29 l45 26 7 -32 c3 -18 10 -34 15 -35z m3253 37 c22 -11 40 -24 40 -28 0 -4 -39 -123 -87 -264 -84 -251 -88 -258 -113 -258 -27 0 -89 39 -124 78 -18 20 -17 24 41 199 l59 178 58 30 c44 23 59 37 63 58 7 32 12 33 63 7z m-4270 -450 c0 -5 -18 -10 -40 -10 -22 0 -40 5 -40 10 0 6 18 10 40 10 22 0 40 -4 40 -10z m1680 0 c0 -6 -60 -10 -161 -10 -104 0 -158 3 -154 10 4 6 68 10 161 10 96 0 154 -4 154 -10z m480 0 c0 -6 -62 -10 -165 -10 -103 0 -165 4 -165 10 0 6 62 10 165 10 103 0 165 -4 165 -10z m480 0 c0 -6 -62 -10 -165 -10 -103 0 -165 4 -165 10 0 6 62 10 165 10 103 0 165 -4 165 -10z m480 0 c0 -6 -63 -10 -170 -10 -107 0 -170 4 -170 10 0 6 63 10 170 10 107 0 170 -4 170 -10z m470 0 c0 -6 -62 -10 -165 -10 -103 0 -165 4 -165 10 0 6 62 10 165 10 103 0 165 -4 165 -10z m250 0 c0 -5 -22 -10 -50 -10 -27 0 -50 5 -50 10 0 6 23 10 50 10 28 0 50 -4 50 -10z m1650 0 c0 -6 -53 -10 -140 -10 -87 0 -140 4 -140 10 0 6 53 10 140 10 87 0 140 -4 140 -10z m-5432 -158 c31 -95 129 -108 249 -32 20 13 24 12 43 -13 46 -58 151 -56 241 4 l44 29 17 -38 c9 -20 17 -40 17 -44 1 -5 -240 -8 -534 -8 -444 0 -537 2 -541 14 -10 26 21 75 66 106 l45 30 169 -3 169 -2 15 -43z m3904 -12 c43 -31 123 -60 167 -60 14 0 42 8 61 18 l35 18 44 -31 43 -30 -857 -3 c-471 -1 -1239 -1 -1707 0 l-850 3 43 30 44 31 35 -18 c19 -10 47 -18 61 -18 46 0 127 30 170 63 l43 32 1313 -2 1313 -3 42 -30z m1647 12 c14 -10 32 -31 39 -46 29 -58 40 -56 -413 -56 -274 0 -415 3 -415 10 0 6 15 23 32 39 l33 29 45 -26 c63 -37 156 -38 194 -3 14 14 26 30 26 37 0 35 23 39 230 37 182 -2 206 -4 229 -21z m-971 -55 c29 -15 50 -32 47 -37 -6 -10 -145 -15 -145 -5 0 11 34 75 39 73 3 -2 30 -16 59 -31z"/>
<path d="M6058 4991 c-160 -51 -270 -177 -297 -338 -35 -205 93 -417 287 -474 l42 -12 0 -399 0 -398 43 0 c24 0 78 -3 120 -6 l77 -7 0 42 0 41 -75 0 -75 0 0 38 0 37 75 -3 75 -4 0 36 0 36 -75 0 -75 0 0 40 0 40 75 0 75 0 0 35 0 35 -75 0 -75 0 0 40 0 40 75 -7 75 -6 0 47 0 46 -60 0 -60 0 0 130 c0 96 3 132 13 134 6 2 35 9 62 15 201 48 337 234 322 441 -7 90 -24 142 -74 217 -98 148 -303 219 -475 164z"/>
</g>
</svg>